inDegrees=yes
name=ik_S53_A02_T01
DataType=double
version=3
OpenSimVersion=4.3-2021-08-27-4bc7ad9
endheader
time	pelvis_tilt	pelvis_list	pelvis_rotation	pelvis_tx	pelvis_ty	pelvis_tz	hip_flexion_r	hip_adduction_r	hip_rotation_r	knee_angle_r	knee_angle_r_beta	ankle_angle_r	subtalar_angle_r	mtp_angle_r	hip_flexion_l	hip_adduction_l	hip_rotation_l	knee_angle_l	knee_angle_l_beta	ankle_angle_l	subtalar_angle_l	mtp_angle_l	lumbar_extension	lumbar_bending	lumbar_rotation	arm_flex_r	arm_add_r	arm_rot_r	elbow_flex_r	pro_sup_r	wrist_flex_r	wrist_dev_r	arm_flex_l	arm_add_l	arm_rot_l	elbow_flex_l	pro_sup_l	wrist_flex_l	wrist_dev_l
40.86000000000079	-3.820429869577382	3.967271908079617	90.81891043318383	0	0.9399999999999999	0	-4.535776869787261	-9.088344868976224	-10.37610549801375	37.72977141676711	0.6585087372474316	0	0	0	6.311043235095285	-1.260174266727578	0.2522629886280454	1.993474771391101	0.03479269831621597	0	0	0	0	0	0	42.16344387837011	-42.16344387837011	4.961611421018083	84.46420858007359	85.03838885183457	0	0	42.16344387837011	-42.16344387837011	4.961611421018083	84.46420858007359	85.03838885182738	0	0
40.88000000000079	-3.515096574737319	3.320867568768298	90.99616935514467	0	0.9399999999999999	0	-4.420486968029381	-7.123365304120049	-9.903041816321528	34.88679880865132	0.6088895046918007	0	0	0	6.984305213201858	-1.622985487035924	0.5787685190061506	0.7767903377793526	0.0135575489919286	0	0	0	0	0	0	42.16480257926567	-42.16480257926567	4.961648373106302	84.46472434009102	85.03835189974778	0	0	42.16480257926567	-42.16480257926567	4.961648373106302	84.46472434009102	85.03835189974062	0	0
40.90000000000079	-3.368311108791225	2.979043305072144	91.16344484756655	0	0.9399999999999999	0	-5.199247178189492	-7.281323924349794	-12.01763868626873	30.75555357420244	0.5367856731433428	0	0	0	7.968542596119148	-2.302472642982083	0.8490560168563942	0.1945457167292038	0.00339546330257682	0	0	0	0	0	0	42.16621270026918	-42.16621270026918	4.961686709907528	84.46525942723544	85.03831356294816	0	0	42.16621270026918	-42.16621270026918	4.961686709907528	84.46525942723544	85.038313562941	0	0
40.9200000000008	-2.712738359547397	1.838204837555933	91.78923210504595	0	0.9399999999999999	0	-3.880764492092511	-5.992543563300151	-12.47666159375964	29.4575336632313	0.5141309519404526	0	0	0	9.171322241892105	-2.921043064142597	1.653360239037915	-1.112305203101169	-0.01941338808117964	0	0	0	0	0	0	42.16783775795262	-42.16783775795262	4.961730785962076	84.46587462002836	85.0382694868954	0	0	42.16783775795262	-42.16783775795262	4.961730785962076	84.46587462002836	85.03826948688825	0	0
40.9400000000008	-1.496166139513761	0.5409173705959935	92.54974747545269	0	0.9399999999999999	0	-2.665074062657337	-4.269049392805774	-12.95515874362505	27.46146023891248	0.4792928985745313	0	0	0	11.63656430938569	-4.911664491493384	1.88958383560262	0.1400977500113054	0.002445167012333203	0	0	0	0	0	0	42.16984981672204	-42.16984981672204	4.961785442587596	84.4666374915095	85.03821483027215	0	0	42.16984981672204	-42.16984981672204	4.961785442587596	84.4666374915095	85.03821483026499	0	0
40.9600000000008	-0.3860344576544492	-0.05217598749959725	92.98016591286421	0	0.9399999999999999	0	-1.804033699955606	-2.332650109438893	-11.96452009143832	24.93482356433876	0.4351947696015795	0	0	0	12.90272962830834	-6.431788784544896	1.895484005652122	-0.54989427273656	-0.009597465597112661	0	0	0	0	0	0	42.17075133088176	-42.17075133088176	4.961809974940109	84.46697990259928	85.03819029792055	0	0	42.17075133088176	-42.17075133088176	4.961809974940109	84.46697990259928	85.03819029791342	0	0
40.98000000000081	0.8777913977198026	-0.4142008802480469	93.33307316139337	0	0.9399999999999999	0	-1.153470171979302	-0.6335148913879417	-11.84974580366893	23.98124390035658	0.4185516647850293	0	0	0	13.91989957641074	-8.126734705225191	1.582061339098037	-1.876090914786351	-0.0327439635297742	0	0	0	0	0	0	42.17143182407421	-42.17143182407421	4.961828477366907	84.46723815078343	85.03817179549449	0	0	42.17143182407421	-42.17143182407421	4.961828477366907	84.46723815078343	85.03817179548736	0	0
41.00000000000081	2.198048956651101	-0.7356588484417786	93.50923004762768	0	0.9399999999999999	0	-0.5702273060503465	1.090814453440804	-11.23796282678673	23.98011711301152	0.4185319986358881	0	0	0	14.936487445794	-9.695352765602903	0.9196352081158361	-1.008260021058971	-0.0175974570837064	0	0	0	0	0	0	42.1722807035389	-42.1722807035389	4.961851566436351	84.46756041717252	85.03814870642597	0	0	42.1722807035389	-42.1722807035389	4.961851566436351	84.46756041717252	85.03814870641884	0	0
